<mxfile host="65bd71144e">
    <diagram id="ZTNwGs12VNiNfuFQawp3" name="Page-1">
        <mxGraphModel dx="666" dy="372" grid="1" gridSize="10" guides="1" tooltips="1" connect="1" arrows="1" fold="1" page="1" pageScale="1" pageWidth="850" pageHeight="1100" math="0" shadow="0">
            <root>
                <mxCell id="0"/>
                <mxCell id="1" parent="0"/>
                <mxCell id="36" style="edgeStyle=none;html=1;endArrow=diamondThin;endFill=0;endSize=11;" edge="1" parent="1" source="2" target="6">
                    <mxGeometry relative="1" as="geometry"/>
                </mxCell>
                <mxCell id="2" value="Product" style="swimlane;fontStyle=1;align=center;verticalAlign=top;childLayout=stackLayout;horizontal=1;startSize=26;horizontalStack=0;resizeParent=1;resizeParentMax=0;resizeLast=0;collapsible=1;marginBottom=0;fillColor=#d5e8d4;strokeColor=#82b366;" vertex="1" parent="1">
                    <mxGeometry x="60" y="10" width="160" height="190" as="geometry"/>
                </mxCell>
                <mxCell id="3" value="+ name: string&#10;" style="text;strokeColor=none;fillColor=none;align=left;verticalAlign=top;spacingLeft=4;spacingRight=4;overflow=hidden;rotatable=0;points=[[0,0.5],[1,0.5]];portConstraint=eastwest;" vertex="1" parent="2">
                    <mxGeometry y="26" width="160" height="26" as="geometry"/>
                </mxCell>
                <mxCell id="15" value="+ description: string" style="text;strokeColor=none;fillColor=none;align=left;verticalAlign=top;spacingLeft=4;spacingRight=4;overflow=hidden;rotatable=0;points=[[0,0.5],[1,0.5]];portConstraint=eastwest;" vertex="1" parent="2">
                    <mxGeometry y="52" width="160" height="26" as="geometry"/>
                </mxCell>
                <mxCell id="17" value="+ image: string" style="text;strokeColor=none;fillColor=none;align=left;verticalAlign=top;spacingLeft=4;spacingRight=4;overflow=hidden;rotatable=0;points=[[0,0.5],[1,0.5]];portConstraint=eastwest;" vertex="1" parent="2">
                    <mxGeometry y="78" width="160" height="26" as="geometry"/>
                </mxCell>
                <mxCell id="18" value="+ price: number" style="text;strokeColor=none;fillColor=none;align=left;verticalAlign=top;spacingLeft=4;spacingRight=4;overflow=hidden;rotatable=0;points=[[0,0.5],[1,0.5]];portConstraint=eastwest;" vertex="1" parent="2">
                    <mxGeometry y="104" width="160" height="26" as="geometry"/>
                </mxCell>
                <mxCell id="16" value="+ category: string" style="text;strokeColor=none;fillColor=none;align=left;verticalAlign=top;spacingLeft=4;spacingRight=4;overflow=hidden;rotatable=0;points=[[0,0.5],[1,0.5]];portConstraint=eastwest;" vertex="1" parent="2">
                    <mxGeometry y="130" width="160" height="26" as="geometry"/>
                </mxCell>
                <mxCell id="4" value="" style="line;strokeWidth=1;fillColor=none;align=left;verticalAlign=middle;spacingTop=-1;spacingLeft=3;spacingRight=3;rotatable=0;labelPosition=right;points=[];portConstraint=eastwest;strokeColor=inherit;" vertex="1" parent="2">
                    <mxGeometry y="156" width="160" height="8" as="geometry"/>
                </mxCell>
                <mxCell id="5" value="+ method(type): type" style="text;strokeColor=none;fillColor=none;align=left;verticalAlign=top;spacingLeft=4;spacingRight=4;overflow=hidden;rotatable=0;points=[[0,0.5],[1,0.5]];portConstraint=eastwest;" vertex="1" parent="2">
                    <mxGeometry y="164" width="160" height="26" as="geometry"/>
                </mxCell>
                <mxCell id="6" value="CartItem" style="swimlane;fontStyle=1;align=center;verticalAlign=top;childLayout=stackLayout;horizontal=1;startSize=26;horizontalStack=0;resizeParent=1;resizeParentMax=0;resizeLast=0;collapsible=1;marginBottom=0;fillColor=#d5e8d4;strokeColor=#82b366;" vertex="1" parent="1">
                    <mxGeometry x="40" y="250" width="200" height="216" as="geometry"/>
                </mxCell>
                <mxCell id="26" value="+ productId: ObjectId(Product)" style="text;strokeColor=none;fillColor=none;align=left;verticalAlign=top;spacingLeft=4;spacingRight=4;overflow=hidden;rotatable=0;points=[[0,0.5],[1,0.5]];portConstraint=eastwest;" vertex="1" parent="6">
                    <mxGeometry y="26" width="200" height="26" as="geometry"/>
                </mxCell>
                <mxCell id="29" value="+ quantity: number" style="text;strokeColor=none;fillColor=none;align=left;verticalAlign=top;spacingLeft=4;spacingRight=4;overflow=hidden;rotatable=0;points=[[0,0.5],[1,0.5]];portConstraint=eastwest;" vertex="1" parent="6">
                    <mxGeometry y="52" width="200" height="26" as="geometry"/>
                </mxCell>
                <mxCell id="28" value="+ email: string" style="text;strokeColor=none;fillColor=none;align=left;verticalAlign=top;spacingLeft=4;spacingRight=4;overflow=hidden;rotatable=0;points=[[0,0.5],[1,0.5]];portConstraint=eastwest;" vertex="1" parent="6">
                    <mxGeometry y="78" width="200" height="26" as="geometry"/>
                </mxCell>
                <mxCell id="27" value="+ name: string" style="text;strokeColor=none;fillColor=none;align=left;verticalAlign=top;spacingLeft=4;spacingRight=4;overflow=hidden;rotatable=0;points=[[0,0.5],[1,0.5]];portConstraint=eastwest;" vertex="1" parent="6">
                    <mxGeometry y="104" width="200" height="26" as="geometry"/>
                </mxCell>
                <mxCell id="35" value="+ image: string" style="text;strokeColor=none;fillColor=none;align=left;verticalAlign=top;spacingLeft=4;spacingRight=4;overflow=hidden;rotatable=0;points=[[0,0.5],[1,0.5]];portConstraint=eastwest;" vertex="1" parent="6">
                    <mxGeometry y="130" width="200" height="26" as="geometry"/>
                </mxCell>
                <mxCell id="7" value="+ price: number" style="text;strokeColor=none;fillColor=none;align=left;verticalAlign=top;spacingLeft=4;spacingRight=4;overflow=hidden;rotatable=0;points=[[0,0.5],[1,0.5]];portConstraint=eastwest;" vertex="1" parent="6">
                    <mxGeometry y="156" width="200" height="26" as="geometry"/>
                </mxCell>
                <mxCell id="8" value="" style="line;strokeWidth=1;fillColor=none;align=left;verticalAlign=middle;spacingTop=-1;spacingLeft=3;spacingRight=3;rotatable=0;labelPosition=right;points=[];portConstraint=eastwest;strokeColor=inherit;" vertex="1" parent="6">
                    <mxGeometry y="182" width="200" height="8" as="geometry"/>
                </mxCell>
                <mxCell id="9" value="+ method(type): type" style="text;strokeColor=none;fillColor=none;align=left;verticalAlign=top;spacingLeft=4;spacingRight=4;overflow=hidden;rotatable=0;points=[[0,0.5],[1,0.5]];portConstraint=eastwest;" vertex="1" parent="6">
                    <mxGeometry y="190" width="200" height="26" as="geometry"/>
                </mxCell>
                <mxCell id="31" value="has" style="edgeStyle=none;html=1;entryX=1.003;entryY=0.802;entryDx=0;entryDy=0;entryPerimeter=0;endArrow=none;endFill=0;" edge="1" parent="1" source="10" target="29">
                    <mxGeometry relative="1" as="geometry"/>
                </mxCell>
                <mxCell id="10" value="User" style="swimlane;fontStyle=1;align=center;verticalAlign=top;childLayout=stackLayout;horizontal=1;startSize=26;horizontalStack=0;resizeParent=1;resizeParentMax=0;resizeLast=0;collapsible=1;marginBottom=0;fillColor=#f8cecc;strokeColor=#b85450;" vertex="1" parent="1">
                    <mxGeometry x="460" y="20" width="160" height="242" as="geometry"/>
                </mxCell>
                <mxCell id="11" value="+ _id: string" style="text;strokeColor=none;fillColor=none;align=left;verticalAlign=top;spacingLeft=4;spacingRight=4;overflow=hidden;rotatable=0;points=[[0,0.5],[1,0.5]];portConstraint=eastwest;" vertex="1" parent="10">
                    <mxGeometry y="26" width="160" height="26" as="geometry"/>
                </mxCell>
                <mxCell id="21" value="+ name: string" style="text;strokeColor=none;fillColor=none;align=left;verticalAlign=top;spacingLeft=4;spacingRight=4;overflow=hidden;rotatable=0;points=[[0,0.5],[1,0.5]];portConstraint=eastwest;" vertex="1" parent="10">
                    <mxGeometry y="52" width="160" height="26" as="geometry"/>
                </mxCell>
                <mxCell id="20" value="+ email: string" style="text;strokeColor=none;fillColor=none;align=left;verticalAlign=top;spacingLeft=4;spacingRight=4;overflow=hidden;rotatable=0;points=[[0,0.5],[1,0.5]];portConstraint=eastwest;" vertex="1" parent="10">
                    <mxGeometry y="78" width="160" height="26" as="geometry"/>
                </mxCell>
                <mxCell id="22" value="+ photoURL: string" style="text;strokeColor=none;fillColor=none;align=left;verticalAlign=top;spacingLeft=4;spacingRight=4;overflow=hidden;rotatable=0;points=[[0,0.5],[1,0.5]];portConstraint=eastwest;" vertex="1" parent="10">
                    <mxGeometry y="104" width="160" height="26" as="geometry"/>
                </mxCell>
                <mxCell id="12" value="" style="line;strokeWidth=1;fillColor=none;align=left;verticalAlign=middle;spacingTop=-1;spacingLeft=3;spacingRight=3;rotatable=0;labelPosition=right;points=[];portConstraint=eastwest;strokeColor=inherit;" vertex="1" parent="10">
                    <mxGeometry y="130" width="160" height="8" as="geometry"/>
                </mxCell>
                <mxCell id="13" value="+ login(): User" style="text;strokeColor=none;fillColor=none;align=left;verticalAlign=top;spacingLeft=4;spacingRight=4;overflow=hidden;rotatable=0;points=[[0,0.5],[1,0.5]];portConstraint=eastwest;" vertex="1" parent="10">
                    <mxGeometry y="138" width="160" height="26" as="geometry"/>
                </mxCell>
                <mxCell id="23" value="+ logout(): void" style="text;strokeColor=none;fillColor=none;align=left;verticalAlign=top;spacingLeft=4;spacingRight=4;overflow=hidden;rotatable=0;points=[[0,0.5],[1,0.5]];portConstraint=eastwest;" vertex="1" parent="10">
                    <mxGeometry y="164" width="160" height="26" as="geometry"/>
                </mxCell>
                <mxCell id="24" value="+ createUser(): User" style="text;strokeColor=none;fillColor=none;align=left;verticalAlign=top;spacingLeft=4;spacingRight=4;overflow=hidden;rotatable=0;points=[[0,0.5],[1,0.5]];portConstraint=eastwest;" vertex="1" parent="10">
                    <mxGeometry y="190" width="160" height="26" as="geometry"/>
                </mxCell>
                <mxCell id="25" value="+ updateProfile(): void" style="text;strokeColor=none;fillColor=none;align=left;verticalAlign=top;spacingLeft=4;spacingRight=4;overflow=hidden;rotatable=0;points=[[0,0.5],[1,0.5]];portConstraint=eastwest;" vertex="1" parent="10">
                    <mxGeometry y="216" width="160" height="26" as="geometry"/>
                </mxCell>
                <mxCell id="33" value="1...*" style="text;html=1;strokeColor=none;fillColor=none;align=center;verticalAlign=middle;whiteSpace=wrap;rounded=0;" vertex="1" parent="1">
                    <mxGeometry x="240" y="320" width="60" height="30" as="geometry"/>
                </mxCell>
                <mxCell id="34" value="1...1" style="text;html=1;strokeColor=none;fillColor=none;align=center;verticalAlign=middle;whiteSpace=wrap;rounded=0;" vertex="1" parent="1">
                    <mxGeometry x="400" y="170" width="60" height="30" as="geometry"/>
                </mxCell>
            </root>
        </mxGraphModel>
    </diagram>
</mxfile>